<svg id="svg" version="1.1" xmlns="http://www.w3.org/2000/svg" xmlns:xlink="http://www.w3.org/1999/xlink" width="400"
  height="400" viewBox="0, 0, 400,400">
  <g id="svgg">
    <path id="path0"
      d="M147.160 284.914 C 138.149 288.136,137.430 303.221,146.077 307.632 C 154.107 311.728,161.833 306.269,161.833 296.500 C 161.833 287.389,155.102 282.074,147.160 284.914 M184.500 284.780 C 178.426 286.790,175.429 293.669,177.488 300.873 C 180.871 312.715,196.984 311.129,198.695 298.786 C 200.028 289.163,192.802 282.034,184.500 284.780 M72.667 296.489 L 72.667 308.384 79.083 308.275 C 86.487 308.150,88.537 307.553,90.154 305.051 C 92.274 301.770,90.994 297.223,87.653 296.162 C 86.962 295.943,86.982 295.890,88.107 294.962 C 90.466 293.018,90.715 288.757,88.583 286.803 C 86.851 285.216,85.505 284.936,78.750 284.756 L 72.667 284.594 72.667 296.489 M106.667 296.459 L 106.667 308.333 109.667 308.333 L 112.667 308.333 112.667 304.333 L 112.667 300.333 113.920 300.333 L 115.173 300.333 117.278 304.333 L 119.383 308.333 122.727 308.333 C 126.655 308.333,126.579 308.828,123.479 303.428 C 121.032 299.164,121.057 299.258,122.151 298.541 C 125.478 296.361,125.878 290.123,122.882 287.127 C 120.994 285.240,119.789 284.958,112.750 284.758 L 106.667 284.585 106.667 296.459 M214.667 296.500 L 214.667 308.333 217.833 308.333 L 221.000 308.333 221.000 305.311 C 221.000 302.223,221.127 301.862,223.021 299.560 C 223.145 299.410,224.423 301.323,225.863 303.810 L 228.480 308.333 231.893 308.333 L 235.306 308.333 231.153 301.498 C 228.869 297.738,227.000 294.521,227.000 294.348 C 227.000 294.176,228.574 291.927,230.499 289.351 L 233.997 284.667 230.570 284.667 L 227.144 284.667 224.072 289.240 L 221.000 293.813 221.000 289.240 L 221.000 284.667 217.833 284.667 L 214.667 284.667 214.667 296.500 M249.000 296.500 L 249.000 308.333 256.667 308.333 L 264.333 308.333 264.333 305.833 L 264.333 303.333 259.833 303.333 L 255.333 303.333 255.333 294.000 L 255.333 284.667 252.167 284.667 L 249.000 284.667 249.000 296.500 M277.790 286.417 C 278.220 287.379,279.884 290.991,281.488 294.443 L 284.404 300.720 284.283 304.527 L 284.162 308.333 287.248 308.333 L 290.333 308.333 290.333 304.322 L 290.333 300.311 293.970 292.489 L 297.607 284.667 294.345 284.667 L 291.082 284.667 289.331 289.674 C 287.791 294.075,287.000 295.785,287.000 294.711 C 287.000 294.530,286.234 292.197,285.297 289.525 L 283.594 284.667 280.301 284.667 L 277.008 284.667 277.790 286.417 M311.333 296.500 L 311.333 308.333 314.333 308.333 L 317.333 308.333 317.317 304.417 C 317.307 302.262,317.117 298.737,316.893 296.583 C 316.669 294.429,316.601 292.667,316.743 292.667 C 316.884 292.667,317.000 292.817,317.000 293.002 C 317.000 293.186,318.603 296.711,320.563 300.835 L 324.126 308.333 327.396 308.333 L 330.667 308.333 330.667 296.500 L 330.667 284.667 327.667 284.667 L 324.667 284.667 324.683 288.917 C 324.692 291.254,324.885 294.853,325.113 296.913 C 325.581 301.161,325.487 301.207,323.900 297.500 C 323.272 296.033,321.612 292.546,320.211 289.750 L 317.662 284.667 314.498 284.667 L 311.333 284.667 311.333 296.500 M83.472 289.977 C 85.242 291.446,83.566 294.000,80.833 294.000 L 79.000 294.000 79.000 291.627 L 79.000 289.253 80.972 289.396 C 82.057 289.474,83.182 289.736,83.472 289.977 M118.182 290.485 C 120.457 292.760,118.304 295.667,114.344 295.667 L 112.667 295.667 112.667 292.667 L 112.667 289.667 115.015 289.667 C 117.064 289.667,117.468 289.771,118.182 290.485 M153.497 290.390 C 157.564 293.590,155.835 303.500,151.208 303.500 C 148.105 303.500,146.534 301.159,146.513 296.500 C 146.488 290.883,150.103 287.721,153.497 290.390 M189.982 290.158 C 193.608 292.033,193.313 301.289,189.569 303.118 C 186.076 304.824,183.300 301.894,183.300 296.500 C 183.300 291.053,186.267 288.236,189.982 290.158 M84.014 299.008 C 86.965 300.587,84.983 303.667,81.017 303.667 L 79.000 303.667 79.000 301.167 L 79.000 298.667 81.189 298.667 C 82.392 298.667,83.664 298.820,84.014 299.008 "
      stroke="none" fill="#f1f113" fill-rule="evenodd"></path>
    <path id="path1"
      d="M199.275 70.562 C 198.598 70.737,77.352 197.695,76.722 198.889 C 75.911 200.428,76.457 201.041,110.628 236.876 L 144.597 272.500 101.465 272.585 L 58.333 272.669 58.333 296.335 L 58.333 320.000 124.083 319.991 L 189.833 319.983 194.500 324.828 C 200.462 331.017,199.650 331.017,205.506 324.833 L 210.083 320.000 275.875 320.000 L 341.667 320.000 341.667 296.333 L 341.667 272.667 298.497 272.667 L 255.328 272.667 289.192 237.250 C 323.933 200.917,323.896 200.958,323.545 199.559 C 323.384 198.920,212.103 81.686,203.048 72.616 C 201.177 70.743,200.341 70.287,199.275 70.562 M259.009 138.028 C 291.363 171.960,317.833 199.840,317.833 199.985 C 317.833 200.130,302.908 215.896,284.667 235.021 C 266.425 254.147,250.900 270.452,250.167 271.256 C 248.901 272.642,248.752 272.711,247.239 272.608 L 245.644 272.500 279.822 236.692 C 303.445 211.941,314.000 200.662,314.000 200.167 C 314.000 199.143,200.855 80.500,199.878 80.500 C 199.227 80.500,86.869 197.798,85.966 199.421 C 85.480 200.294,83.848 198.519,118.667 235.019 C 136.542 253.757,151.891 269.894,152.777 270.878 L 154.387 272.667 152.733 272.667 L 151.079 272.667 116.534 236.434 C 97.534 216.505,82.029 200.090,82.078 199.955 C 82.211 199.588,199.781 76.333,199.998 76.333 C 200.101 76.333,226.656 104.096,259.009 138.028 M255.643 141.732 C 286.096 173.668,310.971 199.921,310.920 200.072 C 310.870 200.223,295.316 216.619,276.356 236.507 L 241.883 272.667 199.858 272.639 L 157.833 272.612 123.390 236.448 C 104.447 216.558,89.017 200.108,89.102 199.892 C 89.329 199.313,199.672 83.667,199.997 83.667 C 200.149 83.667,225.190 109.796,255.643 141.732 M166.415 200.730 L 166.500 247.167 186.833 247.163 C 208.956 247.159,210.818 247.046,217.632 245.296 C 231.486 241.737,238.829 233.425,239.242 220.833 C 239.612 209.561,234.874 201.980,225.290 198.510 L 223.257 197.773 225.199 196.677 C 236.272 190.428,238.597 170.559,229.241 162.147 C 221.991 155.628,216.324 154.576,187.582 154.413 L 166.331 154.293 166.415 200.730 M203.324 173.659 C 208.419 174.395,210.779 176.763,210.776 181.139 C 210.772 187.922,207.098 190.333,196.763 190.333 L 191.333 190.333 191.333 181.833 L 191.333 173.333 196.250 173.340 C 198.954 173.344,202.138 173.487,203.324 173.659 M205.410 208.978 C 212.285 209.864,215.070 212.419,215.066 217.833 C 215.061 225.414,211.410 227.696,198.917 227.929 L 191.333 228.071 191.333 218.369 L 191.333 208.667 197.250 208.678 C 200.504 208.684,204.176 208.819,205.410 208.978 M156.043 285.213 C 164.542 289.027,164.318 304.274,155.707 308.092 C 149.368 310.902,142.427 307.610,140.491 300.873 C 137.300 289.771,146.209 280.799,156.043 285.213 M190.400 284.366 C 200.626 286.488,202.355 302.939,192.876 307.930 C 187.418 310.804,179.843 307.908,177.678 302.120 C 173.839 291.859,180.657 282.345,190.400 284.366 M87.149 285.667 C 90.867 287.545,91.458 292.486,88.284 295.157 C 87.658 295.683,87.470 296.000,87.782 296.000 C 89.481 296.000,91.333 298.880,91.333 301.521 C 91.333 306.767,87.707 308.650,77.583 308.661 L 72.333 308.667 72.333 296.642 L 72.333 284.617 78.917 284.725 C 85.166 284.828,85.584 284.876,87.149 285.667 M121.150 285.667 C 125.614 287.922,126.545 293.884,123.035 297.737 L 121.429 299.500 123.878 303.833 C 125.225 306.217,126.328 308.284,126.330 308.428 C 126.332 308.572,124.742 308.647,122.797 308.595 L 119.261 308.500 117.214 304.590 C 115.244 300.828,115.126 300.681,114.083 300.674 L 113.000 300.667 113.000 304.667 L 113.000 308.667 109.667 308.667 L 106.333 308.667 106.333 296.642 L 106.333 284.617 112.917 284.725 C 119.165 284.828,119.584 284.876,121.150 285.667 M221.000 289.067 L 221.000 293.467 223.686 289.484 C 227.244 284.208,226.633 284.626,230.620 284.738 L 234.025 284.833 230.521 289.576 L 227.017 294.319 231.002 300.949 C 233.194 304.596,235.081 307.824,235.196 308.123 C 235.381 308.604,235.007 308.667,231.942 308.667 L 228.480 308.667 225.876 304.167 C 224.444 301.692,223.236 299.667,223.193 299.667 C 222.183 299.667,221.000 302.888,221.000 305.638 L 221.000 308.667 217.833 308.667 L 214.667 308.667 214.667 296.667 L 214.667 284.667 217.833 284.667 L 221.000 284.667 221.000 289.067 M255.333 293.824 L 255.333 302.981 259.917 303.074 L 264.500 303.167 264.597 305.917 L 264.694 308.667 256.847 308.667 L 249.000 308.667 249.000 296.667 L 249.000 284.667 252.167 284.667 L 255.333 284.667 255.333 293.824 M285.460 289.500 C 286.354 292.158,287.179 294.333,287.293 294.333 C 287.408 294.333,288.251 292.196,289.167 289.583 L 290.833 284.833 294.290 284.738 C 297.007 284.663,297.709 284.734,297.567 285.071 C 297.468 285.307,295.875 288.775,294.027 292.778 L 290.667 300.055 290.667 304.361 L 290.667 308.667 287.333 308.667 L 284.000 308.667 284.000 304.477 L 284.000 300.288 280.500 292.698 C 278.575 288.523,277.000 285.008,277.000 284.887 C 277.000 284.766,278.538 284.667,280.417 284.667 L 283.834 284.667 285.460 289.500 M321.227 291.583 C 323.067 295.387,324.747 298.875,324.961 299.333 L 325.351 300.167 325.150 299.333 C 325.040 298.875,324.866 295.387,324.763 291.583 L 324.578 284.667 327.622 284.667 L 330.667 284.667 330.667 296.667 L 330.667 308.667 327.387 308.667 L 324.107 308.667 321.262 302.750 C 319.697 299.496,318.022 296.008,317.539 295.000 C 317.055 293.992,316.748 293.542,316.855 294.000 C 316.963 294.458,317.134 297.946,317.237 301.750 L 317.422 308.667 314.378 308.667 L 311.333 308.667 311.333 296.667 L 311.333 284.667 314.607 284.667 L 317.881 284.667 321.227 291.583 M79.000 291.833 L 79.000 294.000 80.083 293.981 C 83.041 293.930,84.685 292.261,83.524 290.489 C 83.050 289.767,82.743 289.667,80.992 289.667 L 79.000 289.667 79.000 291.833 M113.000 292.454 L 113.000 295.333 115.015 295.333 C 120.102 295.333,120.257 290.158,115.183 289.751 L 113.000 289.575 113.000 292.454 M149.064 290.323 C 145.898 292.307,145.752 300.183,148.836 302.610 C 150.726 304.096,153.479 303.287,154.631 300.907 C 157.520 294.940,153.597 287.482,149.064 290.323 M186.136 290.191 C 182.586 291.942,182.480 301.013,185.987 302.826 C 189.717 304.756,192.601 301.464,192.260 295.667 C 191.979 290.899,189.391 288.584,186.136 290.191 M79.000 301.167 L 79.000 303.667 80.583 303.648 C 83.874 303.609,85.420 302.386,84.883 300.247 C 84.620 299.199,83.239 298.667,80.784 298.667 L 79.000 298.667 79.000 301.167 M203.038 320.583 C 202.863 320.904,202.105 321.762,201.354 322.490 L 199.988 323.814 198.081 321.907 L 196.174 320.000 199.765 320.000 C 203.085 320.000,203.333 320.044,203.038 320.583 "
      stroke="none" fill="#040404" fill-rule="evenodd"></path>
    <path id="path2"
      d="M150.250 284.235 C 150.662 284.315,151.337 284.315,151.750 284.235 C 152.162 284.156,151.825 284.091,151.000 284.091 C 150.175 284.091,149.837 284.156,150.250 284.235 M187.250 284.235 C 187.662 284.315,188.338 284.315,188.750 284.235 C 189.162 284.156,188.825 284.091,188.000 284.091 C 187.175 284.091,186.838 284.156,187.250 284.235 M72.484 296.667 C 72.484 303.358,72.528 306.096,72.583 302.750 C 72.637 299.404,72.637 293.929,72.583 290.583 C 72.528 287.237,72.484 289.975,72.484 296.667 M112.785 292.500 C 112.784 294.150,112.840 294.867,112.910 294.093 C 112.980 293.320,112.981 291.970,112.912 291.093 C 112.843 290.217,112.786 290.850,112.785 292.500 M290.463 304.500 C 290.463 306.883,290.517 307.815,290.581 306.569 C 290.645 305.324,290.645 303.374,290.580 302.236 C 290.515 301.098,290.462 302.117,290.463 304.500 M112.795 304.667 C 112.795 306.958,112.848 307.896,112.913 306.750 C 112.979 305.604,112.979 303.729,112.913 302.583 C 112.848 301.438,112.795 302.375,112.795 304.667 M259.986 303.244 L 264.307 303.352 264.424 305.926 L 264.540 308.500 264.520 305.833 L 264.500 303.167 260.083 303.152 L 255.666 303.136 259.986 303.244 "
      stroke="none" fill="#5d5c05" fill-rule="evenodd"></path>
    <path id="path3"
      d="M106.494 296.667 L 106.500 308.500 109.584 308.520 L 112.668 308.540 109.672 308.424 L 106.675 308.308 106.581 296.571 L 106.487 284.833 106.494 296.667 M113.083 300.563 C 113.404 300.647,113.929 300.647,114.250 300.563 C 114.571 300.479,114.308 300.411,113.667 300.411 C 113.025 300.411,112.763 300.479,113.083 300.563 M284.125 303.833 C 284.125 305.850,284.180 306.632,284.247 305.571 C 284.313 304.510,284.312 302.860,284.245 301.904 C 284.178 300.949,284.124 301.817,284.125 303.833 M119.218 308.417 C 119.303 308.554,120.939 308.667,122.853 308.667 C 124.767 308.667,126.333 308.554,126.333 308.417 C 126.333 308.279,124.698 308.167,122.698 308.167 C 120.699 308.167,119.133 308.279,119.218 308.417 M74.917 308.581 C 76.246 308.644,78.421 308.644,79.750 308.581 C 81.079 308.518,79.992 308.466,77.333 308.466 C 74.675 308.466,73.587 308.518,74.917 308.581 M216.261 308.579 C 217.230 308.647,218.730 308.646,219.595 308.578 C 220.459 308.509,219.667 308.454,217.833 308.455 C 216.000 308.456,215.293 308.512,216.261 308.579 M230.250 308.579 C 231.213 308.646,232.787 308.646,233.750 308.579 C 234.713 308.512,233.925 308.457,232.000 308.457 C 230.075 308.457,229.287 308.512,230.250 308.579 M252.750 308.582 C 254.904 308.640,258.429 308.640,260.583 308.582 C 262.737 308.524,260.975 308.477,256.667 308.477 C 252.358 308.477,250.596 308.524,252.750 308.582 M285.595 308.579 C 286.563 308.647,288.063 308.646,288.928 308.578 C 289.793 308.509,289.000 308.454,287.167 308.455 C 285.333 308.456,284.626 308.512,285.595 308.579 M312.750 308.578 C 313.621 308.647,315.046 308.647,315.917 308.578 C 316.787 308.510,316.075 308.453,314.333 308.453 C 312.592 308.453,311.879 308.510,312.750 308.578 M325.928 308.579 C 326.896 308.647,328.396 308.646,329.261 308.578 C 330.126 308.509,329.333 308.454,327.500 308.455 C 325.667 308.456,324.959 308.512,325.928 308.579 "
      stroke="none" fill="#84840c" fill-rule="evenodd"></path>
    <path id="path4" d="" stroke="none" fill="#7c7c0c" fill-rule="evenodd"></path>
  </g>
</svg>